# xmcd CD database file
#
# Track frame offsets:
#	150
#	19798
#	30118
#	41601
#	59007
#	70707
#	84064
#	100616
#	114136
#	132599
#	149536
#	162372
#	179102
#	195483
#	227390
#	245881
#	261042
#	280200
#
# Disc length: 3983 seconds
#
# Revision: 0
# Processed by: cddbd v1.5PL3 Copyright (c) Steve Scherf et al.
# Submitted via: CDex 1.51
#
DISCID=f20f8d12
DTITLE=Lisa Hugo - Natural
DYEAR=2000
DGENRE=Jazz
TTITLE0=New York State of Mind
TTITLE1=Aint Misbehavin
TTITLE2=Autumn Leaves
TTITLE3=Daniel
TTITLE4=Day by Day
TTITLE5=Stormy Weather
TTITLE6=I Wish You Love
TTITLE7=You Don't Bring Me Flowers
TTITLE8=You've Got A Friend
TTITLE9=Can't Help Lovin Dat Man
TTITLE10=La Vie En Rose
TTITLE11=I'm Gonna Miss You
TTITLE12=Hello
TTITLE13=Almost Like Being in Love - This Can't Be Love - Am I Blue
TTITLE14=When You Say Nothing At All
TTITLE15=Love Story
TTITLE16=Imagine
TTITLE17=All My Lovin
EXTD=YEAR: 2000
EXTT0=
EXTT1=
EXTT2=
EXTT3=
EXTT4=
EXTT5=
EXTT6=
EXTT7=
EXTT8=
EXTT9=
EXTT10=
EXTT11=
EXTT12=
EXTT13=
EXTT14=
EXTT15=
EXTT16=
EXTT17=
PLAYORDER=
